<svg width="220.000000pt" height="220.000000pt" viewBox="0 0 220.000000 220.000000" xmlns="http://www.w3.org/2000/svg">
  <g transform="translate(0.000000,220.000000) scale(0.100000,-0.100000)" fill="#fefefe" stroke="none">
    <path d="M0 1100 l0 -1100 1100 0 1100 0 0 1100 0 1100 -1100 0 -1100 0 0
-1100z m1185 120 c13 -12 31 -38 40 -57 l17 -35 -7 -35 c-9 -48 -30 -78 -72
-104 l-34 -21 -50 4 -51 5 -29 32 -29 33 -98 -22 c-53 -13 -200 -49 -327 -81
-254 -65 -376 -92 -383 -85 -2 3 29 14 69 26 41 12 130 38 199 60 69 21 184
57 255 79 72 22 159 48 194 58 l64 18 13 43 c15 54 38 80 87 102 l38 17 40 -7
c22 -4 51 -18 64 -30z m-1038 -377 c-4 -3 -10 -3 -14 0 -3 4 0 7 7 7 7 0 10
-3 7 -7z m-70 -20 c-4 -3 -10 -3 -14 0 -3 4 0 7 7 7 7 0 10 -3 7 -7z" />
  </g>
  <g transform="translate(0.000000,220.000000) scale(0.100000,-0.100000)" fill="#601986" stroke="none">
    <path d="M1060 1251 c0 -5 -13 -12 -29 -16 l-29 -6 -6 -25 c-4 -13 -13 -24
-20 -24 -17 0 -26 -22 -26 -60 l0 -28 -32 -5 c-67 -11 -131 -27 -142 -36 -9
-7 -81 -30 -216 -69 -14 -4 -26 -15 -28 -25 l-3 -17 24 0 c24 0 54 8 195 51
34 10 71 19 82 19 10 0 22 5 25 10 3 6 19 10 35 10 l29 0 9 15 8 16 17 -7 c10
-3 24 -19 33 -35 l15 -29 18 0 c11 0 21 -5 23 -11 l4 -12 34 1 c65 2 72 3 86
17 8 7 14 23 14 34 l0 21 24 0 25 0 4 18 c9 33 8 102 -1 102 -5 0 -15 14 -22
30 l-12 30 -18 0 c-10 0 -25 6 -32 13 -7 8 -30 17 -51 21 l-37 7 0 -10z" />
    <path d="M476 962 c-3 -6 -28 -15 -56 -22 l-50 -12 0 -19 0 -19 15 0 c8 0 15
4 15 9 0 9 55 23 95 25 l20 1 0 20 0 20 -17 3 c-9 2 -19 -1 -22 -6z" />
    <path d="M290 895 l0 -15 20 0 20 0 0 15 0 15 -20 0 -20 0 0 -15z" />
    <path d="M220 875 c0 -8 7 -15 15 -15 8 0 15 7 15 15 0 8 -7 15 -15 15 -8 0
-15 -7 -15 -15z" />
  </g>
  <g transform="translate(0.000000,220.000000) scale(0.100000,-0.100000)" fill="#5d1984" stroke="none">
    <path d="M1085 1240 c3 -5 2 -10 -4 -10 -5 0 -17 -3 -27 -7 l-17 -6 7 11 7 12
-25 0 -26 0 0 -15 0 -14 18 5 17 6 -17 -15 c-10 -8 -14 -17 -10 -21 4 -4 -5
-5 -21 -1 l-27 7 0 -15 c0 -8 6 -14 13 -13 32 6 56 18 61 32 l6 15 20 -11 c18
-10 24 -7 21 13 -1 10 6 9 30 -5 l22 -13 4 11 4 12 19 -5 20 -5 0 11 c0 6 -7
11 -15 11 -8 0 -15 5 -15 10 0 6 -7 10 -16 10 l-15 0 6 -10 6 -10 -16 0 -16 0
6 10 6 10 -16 0 -16 0 6 -10z m-10 -30 c3 -5 4 -10 1 -10 -3 0 -8 5 -11 10 -3
6 -4 10 -1 10 3 0 8 -4 11 -10z" />
    <path d="M1226 1141 c-4 -7 -5 -15 -2 -18 9 -9 19 4 14 18 l-4 13 -8 -13z" />
    <path d="M950 1114 l0 -15 10 6 c6 4 8 11 5 16 -9 14 -15 11 -15 -7z" />
    <path d="M1220 1091 c0 -6 5 -13 10 -16 l10 -6 0 15 c0 9 -4 16 -10 16 -5 0
-10 -4 -10 -9z" />
    <path d="M916 1075 c4 -8 1 -22 -6 -30 l-12 -15 15 0 c9 0 26 10 37 23 12 12
21 18 20 12 -5 -25 1 -45 15 -45 l15 0 -13 28 c-14 33 -25 42 -54 42 l-22 0 5
-15z" />
    <path d="M836 1071 l-20 -8 11 -6 c11 -7 63 8 63 18 0 7 -31 5 -54 -4z" />
    <path d="M900 1060 c0 -7 3 -10 7 -7 3 4 3 10 0 14 -4 3 -7 0 -7 -7z" />
    <path d="M1190 1052 c-8 -3 -18 -11 -23 -18 -4 -7 -13 -11 -21 -8 -7 3 -18 -2
-25 -10 -12 -15 -45 -11 -36 4 3 5 -4 6 -14 3 l-20 -5 6 -15 6 -14 14 5 c8 3
24 1 35 -5 l21 -11 8 13 9 14 0 -12 c0 -7 5 -13 11 -13 l11 0 -6 15 -5 15 19
0 20 0 0 14 c0 8 5 16 12 18 l12 4 -9 6 c-6 3 -17 3 -25 0z m-63 -59 c-4 -3
-7 0 -7 7 0 7 3 10 7 7 3 -4 3 -10 0 -14z" />
    <path d="M740 1036 c0 -8 5 -18 10 -21 6 -4 8 -11 5 -16 -4 -5 1 -9 9 -9 21 0
20 10 -1 26 l-18 13 17 1 c9 0 20 5 23 10 l6 10 -25 0 -26 0 0 -14z" />
    <path d="M613 1003 c-13 -2 -23 -9 -23 -15 l0 -10 26 6 27 7 -6 -15 c-7 -17
-3 -19 30 -10 13 4 20 10 17 15 -3 5 -10 6 -16 3 l-11 -7 6 16 6 17 -17 -1
c-9 -1 -27 -4 -39 -6z" />
    <path d="M1010 1000 c0 -5 7 -10 16 -10 l15 0 -6 10 c-3 6 -10 10 -16 10 -5 0
-9 -4 -9 -10z" />
    <path d="M520 965 c0 -8 4 -15 9 -15 5 0 14 7 21 15 l12 15 -21 0 -21 0 0 -15z" />
    <path d="M595 960 l-6 -10 16 0 16 0 -6 10 c-3 6 -8 10 -10 10 -2 0 -7 -4 -10
-10z" />
    <path d="M453 935 l0 -15 25 0 24 0 -12 15 c-7 8 -18 15 -25 15 -6 0 -12 -7
-12 -15z" />
    <path d="M386 915 c4 -8 10 -15 15 -15 5 0 9 7 9 15 0 8 -7 15 -15 15 l-14 0
5 -15z" />
    <path d="M260 885 c0 -8 7 -15 15 -15 8 0 15 7 15 15 0 8 -7 15 -15 15 -8 0
-15 -7 -15 -15z" />
  </g>
  <g transform="translate(0.000000,220.000000) scale(0.100000,-0.100000)" fill="#60178a" stroke="none">
    <path d="M1044 1231 c6 -9 -22 -26 -38 -22 -13 3 -36 -20 -30 -30 3 -5 12 -9
20 -9 8 0 12 5 9 10 l-6 10 15 0 c9 0 16 4 16 9 0 5 14 13 31 16 l32 7 -14 9
c-18 11 -42 11 -35 0z" />
    <path d="M1107 1233 c-14 -14 -5 -18 38 -18 48 -1 59 9 23 21 l-22 7 -4 -12
-4 -12 -12 10 c-7 6 -16 8 -19 4z" />
    <path d="M1200 1180 c6 -11 13 -20 15 -20 3 0 5 9 5 20 l0 20 -15 0 -16 0 11
-20z" />
    <path d="M1224 1109 c-3 -6 -1 -16 5 -22 l11 -11 0 22 c0 24 -5 28 -16 11z" />
    <path d="M936 1074 l7 -27 -12 7 -11 7 0 -10 c0 -6 9 -11 20 -11 11 0 23 -7
26 -15 7 -17 34 -21 34 -5 0 6 -5 10 -11 10 -5 0 -8 4 -4 9 3 6 -3 15 -14 21
l-20 10 5 15 6 15 -16 0 -16 0 6 -26z" />
    <path d="M795 1050 c4 -6 11 -8 16 -5 14 9 11 15 -7 15 l-15 0 6 -10z" />
    <path d="M1186 1035 l6 -15 -18 7 -17 6 6 -15 6 -16 -22 4 -22 4 20 -8 20 -9
27 20 c16 12 28 24 28 29 0 4 -9 8 -20 8 l-19 0 5 -15z" />
    <path d="M1135 1030 c-3 -5 -1 -10 4 -10 6 0 11 5 11 10 0 6 -2 10 -4 10 -3 0
-8 -4 -11 -10z" />
    <path d="M790 1018 c-11 -4 -20 -9 -20 -12 0 -3 18 -4 40 -4 l40 0 0 12 c0 13
-29 15 -60 4z" />
    <path d="M637 1013 c-14 -14 -6 -19 23 -15 17 2 33 8 36 13 6 10 -49 12 -59 2z" />
    <path d="M1045 1009 c-4 -6 -13 -8 -21 -5 -7 3 -16 1 -19 -3 -3 -5 2 -12 11
-15 25 -10 31 -7 37 14 6 22 2 26 -8 9z" />
    <path d="M1071 1001 l-13 -8 10 -7 c5 -3 12 1 16 9 6 17 6 18 -13 6z" />
    <path d="M1095 989 c-10 -14 -1 -21 19 -13 9 3 13 10 10 15 -7 12 -21 11 -29
-2z" />
    <path d="M343 923 c-7 -2 -13 -11 -13 -19 l0 -14 20 0 20 0 0 20 c0 20 -5 23
-27 13z" />
  </g>
  <g transform="translate(0.000000,220.000000) scale(0.100000,-0.100000)" fill="#601683" stroke="none">
    <path d="M1102 1249 c2 -6 8 -10 13 -10 5 0 11 4 13 10 2 6 -4 11 -13 11 -9 0
-15 -5 -13 -11z" />
    <path d="M1027 1235 c-4 -8 -1 -17 5 -21 l11 -7 -7 11 -7 12 20 0 c12 0 21 5
21 10 0 16 -37 12 -43 -5z" />
    <path d="M980 1205 c-7 -9 -10 -18 -7 -22 8 -7 37 15 37 28 0 14 -16 11 -30
-6z" />
    <path d="M1125 1210 c-3 -5 -1 -10 4 -10 6 0 11 5 11 10 0 6 -2 10 -4 10 -3 0
-8 -4 -11 -10z" />
    <path d="M1190 1200 c0 -5 5 -10 10 -10 6 0 10 5 10 10 0 6 -4 10 -10 10 -5 0
-10 -4 -10 -10z" />
    <path d="M1210 1165 c0 -8 5 -15 10 -15 6 0 10 7 10 15 0 8 -4 15 -10 15 -5 0
-10 -7 -10 -15z" />
    <path d="M950 1146 c0 -14 -7 -32 -16 -41 -19 -19 -14 -28 10 -19 9 3 16 14
17 23 0 9 2 26 5 39 2 12 -1 22 -6 22 -6 0 -10 -11 -10 -24z" />
    <path d="M1225 1131 c-3 -5 -1 -12 5 -16 l10 -6 0 15 c0 18 -6 21 -15 7z" />
    <path d="M895 1070 c3 -5 8 -10 11 -10 3 0 2 5 -1 10 -3 6 -8 10 -11 10 -3 0
-2 -4 1 -10z" />
    <path d="M1197 1036 l-37 -41 10 -3 c14 -5 50 27 50 44 0 7 5 14 12 16 6 2 9
9 7 15 -2 6 -21 -8 -42 -31z" />
    <path d="M936 1055 c-8 -23 -8 -25 8 -25 7 0 20 8 27 17 l14 17 -14 -8 -13 -9
-8 13 -7 12 -7 -17z" />
    <path d="M855 1035 l-20 -15 30 2 c17 2 29 7 28 13 -3 16 -18 16 -38 0z" />
    <path d="M1173 1043 c4 -3 10 -3 14 0 3 4 0 7 -7 7 -7 0 -10 -3 -7 -7z" />
    <path d="M729 1038 c-6 -22 -5 -39 3 -45 l11 -6 -7 11 c-3 6 -2 13 4 17 13 8
13 25 0 25 -5 0 -10 -1 -11 -2z" />
    <path d="M985 1020 c-3 -5 -1 -10 4 -10 6 0 11 5 11 10 0 6 -2 10 -4 10 -3 0
-8 -4 -11 -10z" />
    <path d="M1133 1023 c4 -3 10 -3 14 0 3 4 0 7 -7 7 -7 0 -10 -3 -7 -7z" />
    <path d="M1053 1013 c4 -3 10 -3 14 0 3 4 0 7 -7 7 -7 0 -10 -3 -7 -7z" />
    <path d="M649 980 c25 -21 42 -22 49 -2 l4 12 -15 -6 c-9 -3 -26 0 -39 6 l-23
11 24 -21z" />
    <path d="M1010 990 c0 -5 7 -10 16 -10 l15 0 -6 10 c-3 6 -10 10 -16 10 -5 0
-9 -4 -9 -10z" />
    <path d="M1065 980 c-3 -5 -1 -10 4 -10 6 0 11 5 11 10 0 6 -2 10 -4 10 -3 0
-8 -4 -11 -10z" />
    <path d="M1105 980 l-6 -10 26 0 26 0 -6 10 c-3 6 -12 10 -20 10 -8 0 -17 -4
-20 -10z" />
    <path d="M509 968 c0 -2 -2 -11 -4 -20 l-3 -18 16 0 c30 0 62 12 57 21 -3 4
-12 6 -19 3 -8 -3 -17 -1 -21 5 -5 10 -24 15 -26 9z" />
    <path d="M330 895 c0 -8 7 -15 15 -15 8 0 15 4 15 9 0 5 -7 11 -15 15 l-15 5
0 -14z" />
    <path d="M220 863 c0 -7 7 -13 15 -13 8 0 15 6 15 13 0 8 -7 14 -15 14 -8 0
-15 -6 -15 -14z" />
  </g>
  <g transform="translate(0.000000,220.000000) scale(0.100000,-0.100000)" fill="#f8f6fa" stroke="none">
    <path d="M1066 1262 l-6 -9 46 -6 c24 -2 53 -12 63 -21 10 -9 23 -16 31 -16
l12 0 -12 16 c-8 8 -22 20 -32 25 -27 14 -95 21 -102 11z" />
    <path d="M966 1201 c-4 -7 -5 -15 -2 -18 9 -9 19 4 14 18 l-4 13 -8 -13z" />
    <path d="M946 1151 c-4 -7 -5 -15 -2 -18 9 -9 19 4 14 18 l-4 13 -8 -13z" />
    <path d="M1230 1146 c0 -9 5 -16 10 -16 6 0 10 4 10 9 0 6 -4 13 -10 16 l-10
6 0 -15z" />
    <path d="M715 1044 c-22 -8 -46 -17 -54 -19 -8 -3 -11 -8 -8 -11 7 -8 117 28
117 38 0 10 -7 9 -55 -8z" />
    <path d="M1220 1049 c0 -7 -10 -20 -22 -30 -11 -11 -18 -22 -14 -27 4 -4 19 7
32 23 26 32 30 45 14 45 -5 0 -10 -5 -10 -11z" />
    <path d="M930 1030 c0 -5 4 -10 9 -10 6 0 13 5 16 10 l6 10 -15 0 c-9 0 -16
-4 -16 -10z" />
    <path d="M890 1020 c0 -5 4 -10 9 -10 6 0 13 5 16 10 l6 10 -15 0 c-9 0 -16
-4 -16 -10z" />
    <path d="M823 1013 c-13 -2 -23 -9 -23 -14 l0 -11 33 7 c17 4 36 11 42 16 l9
9 -19 -1 c-11 -1 -30 -4 -42 -6z" />
    <path d="M750 990 c0 -5 4 -10 9 -10 6 0 13 5 16 10 l6 10 -15 0 c-9 0 -16 -4
-16 -10z" />
    <path d="M1000 990 c0 -21 104 -48 115 -29 l6 9 -28 0 c-15 0 -41 7 -57 15
-34 18 -36 18 -36 5z" />
    <path d="M710 980 c0 -5 4 -10 9 -10 6 0 13 5 16 10 l6 10 -15 0 c-9 0 -16 -4
-16 -10z" />
    <path d="M480 973 c-8 -3 -26 -10 -39 -15 -13 -5 -21 -11 -18 -14 7 -8 87 17
87 28 0 9 -8 9 -30 1z" />
    <path d="M670 968 c0 -4 4 -8 9 -8 6 0 12 4 15 8 3 5 -1 9 -9 9 -8 0 -15 -4
-15 -9z" />
    <path d="M520 930 c0 -5 4 -10 9 -10 6 0 13 5 16 10 l6 10 -15 0 c-9 0 -16 -4
-16 -10z" />
    <path d="M480 920 c0 -5 4 -10 9 -10 6 0 13 5 16 10 l6 10 -15 0 c-9 0 -16 -4
-16 -10z" />
    <path d="M220 893 c-8 -3 -26 -10 -39 -15 -13 -5 -21 -11 -18 -14 7 -8 87 17
87 28 0 9 -8 9 -30 1z" />
    <path d="M343 893 c-13 -2 -23 -9 -23 -15 l0 -10 28 7 c15 3 31 11 37 16 l9 9
-14 -1 c-8 -1 -25 -4 -37 -6z" />
    <path d="M270 870 c0 -5 6 -10 14 -10 8 0 18 5 21 10 l6 10 -20 0 c-12 0 -21
-4 -21 -10z" />
    <path d="M235 860 c-3 -5 -2 -10 4 -10 5 0 13 5 16 10 3 6 2 10 -4 10 -5 0
-13 -4 -16 -10z" />
    <path d="M70 820 c0 -5 4 -10 9 -10 6 0 13 5 16 10 l6 10 -15 0 c-9 0 -16 -4
-16 -10z" />
  </g>
  <g transform="translate(0.000000,220.000000) scale(0.100000,-0.100000)" fill="#f2ecf5" stroke="none">
    <path d="M1075 1260 l-6 -10 16 0 16 0 -6 10 c-3 6 -8 10 -10 10 -2 0 -7 -4
-10 -10z" />
    <path d="M976 1207 c-28 -37 -32 -47 -16 -47 6 0 10 5 10 10 0 6 11 22 25 36
27 27 30 34 16 34 -6 0 -21 -15 -35 -33z" />
    <path d="M1190 1210 c0 -6 7 -13 15 -16 8 -4 15 -12 15 -20 0 -8 5 -14 10 -14
14 0 13 7 -6 35 -17 26 -34 33 -34 15z" />
    <path d="M930 1109 c-8 -5 -28 -14 -44 -19 -43 -16 -24 -23 23 -9 l41 12 0 14
c0 15 0 15 -20 2z" />
    <path d="M1230 1096 c0 -13 -3 -33 -6 -43 l-7 -18 11 10 c7 6 15 25 18 43 l7
32 -12 0 c-6 0 -11 -11 -11 -24z" />
    <path d="M785 1060 l-6 -10 15 0 c9 0 16 5 16 10 0 6 -4 10 -9 10 -6 0 -13 -4
-16 -10z" />
    <path d="M658 1022 c-50 -18 -70 -32 -46 -32 8 0 18 3 22 8 4 4 11 7 14 8 28
2 72 17 72 25 0 12 -6 11 -62 -9z" />
    <path d="M920 1030 c0 -5 4 -10 9 -10 6 0 13 5 16 10 l6 10 -15 0 c-9 0 -16
-4 -16 -10z" />
    <path d="M880 1020 c0 -5 4 -10 9 -10 6 0 13 5 16 10 l6 10 -15 0 c-9 0 -16
-4 -16 -10z" />
    <path d="M835 1010 c-3 -5 -2 -10 4 -10 5 0 13 5 16 10 3 6 2 10 -4 10 -5 0
-13 -4 -16 -10z" />
    <path d="M975 1010 c3 -5 10 -10 16 -10 5 0 9 5 9 10 0 6 -7 10 -16 10 l-15 0
6 -10z" />
    <path d="M1190 1010 c0 -5 5 -10 10 -10 6 0 10 5 10 10 0 6 -4 10 -10 10 -5 0
-10 -4 -10 -10z" />
    <path d="M790 1000 c0 -5 4 -10 9 -10 6 0 13 5 16 10 l6 10 -15 0 c-9 0 -16
-4 -16 -10z" />
    <path d="M525 980 l-6 -10 15 0 c9 0 16 5 16 10 0 6 -4 10 -9 10 -6 0 -13 -4
-16 -10z" />
    <path d="M1130 970 c0 -5 4 -10 9 -10 6 0 13 5 16 10 l6 10 -15 0 c-9 0 -16
-4 -16 -10z" />
    <path d="M630 960 c0 -5 4 -10 9 -10 6 0 13 5 16 10 l6 10 -15 0 c-9 0 -16 -4
-16 -10z" />
    <path d="M398 942 c-50 -18 -73 -34 -41 -28 46 9 103 30 103 38 0 11 -6 10
-62 -10z" />
    <path d="M440 910 c0 -5 4 -10 9 -10 6 0 13 5 16 10 l6 10 -15 0 c-9 0 -16 -4
-16 -10z" />
    <path d="M265 900 l-6 -10 15 0 c9 0 16 5 16 10 0 6 -4 10 -9 10 -6 0 -13 -4
-16 -10z" />
    <path d="M400 900 c0 -5 4 -10 9 -10 6 0 13 5 16 10 l6 10 -15 0 c-9 0 -16 -4
-16 -10z" />
    <path d="M350 890 c0 -5 4 -10 9 -10 6 0 13 5 16 10 l6 10 -15 0 c-9 0 -16 -4
-16 -10z" />
    <path d="M310 880 c0 -5 4 -10 9 -10 6 0 13 5 16 10 l6 10 -15 0 c-9 0 -16 -4
-16 -10z" />
    <path d="M138 862 c-26 -9 -49 -20 -53 -24 -4 -3 13 -5 36 -4 l43 2 4 13 4 13
8 -12 c10 -17 31 -3 23 15 -3 8 -8 15 -12 14 -3 0 -27 -8 -53 -17z" />
    <path d="M260 870 c0 -5 4 -10 9 -10 6 0 13 5 16 10 l6 10 -15 0 c-9 0 -16 -4
-16 -10z" />
    <path d="M220 858 c0 -4 4 -8 9 -8 6 0 12 4 15 8 3 5 -1 9 -9 9 -8 0 -15 -4
-15 -9z" />
  </g>
  <g transform="translate(0.000000,220.000000) scale(0.100000,-0.100000)" fill="#5b1383" stroke="none">
    <path d="M1075 1250 c3 -5 10 -10 16 -10 5 0 9 5 9 10 0 6 -7 10 -16 10 l-15
0 6 -10z" />
    <path d="M1135 1240 c3 -5 10 -10 16 -10 5 0 9 5 9 10 0 6 -7 10 -16 10 l-15
0 6 -10z" />
    <path d="M1015 1230 c4 -6 11 -8 16 -5 14 9 11 15 -7 15 l-15 0 6 -10z" />
    <path d="M975 1199 c-11 -17 1 -21 15 -4 l12 15 -10 0 c-6 0 -14 -5 -17 -11z" />
    <path d="M1207 1184 l17 -27 4 12 c4 13 -16 41 -29 41 -5 0 -2 -12 8 -26z" />
    <path d="M913 1098 c-18 -6 -33 -15 -33 -19 0 -11 1 -11 39 2 17 6 31 15 31
20 0 5 -1 9 -2 8 -2 -1 -18 -6 -35 -11z" />
    <path d="M723 1039 c-18 -5 -33 -14 -33 -19 0 -13 3 -12 37 2 15 6 31 12 35
12 3 1 10 4 14 9 10 9 -12 8 -53 -4z" />
    <path d="M883 1037 c-24 -5 -43 -14 -43 -18 0 -12 12 -11 65 2 25 6 42 15 39
20 -6 10 -4 10 -61 -4z" />
    <path d="M790 1010 c-8 -5 -12 -12 -9 -15 8 -8 39 5 39 16 0 11 -11 11 -30 -1z" />
    <path d="M620 1000 c0 -5 5 -10 10 -10 6 0 10 5 10 10 0 6 -4 10 -10 10 -5 0
-10 -4 -10 -10z" />
    <path d="M725 990 l-6 -10 15 0 c9 0 16 5 16 10 0 6 -4 10 -9 10 -6 0 -13 -4
-16 -10z" />
    <path d="M1155 990 l-6 -10 15 0 c9 0 16 5 16 10 0 6 -4 10 -9 10 -6 0 -13 -4
-16 -10z" />
    <path d="M690 980 c0 -5 5 -10 10 -10 6 0 10 5 10 10 0 6 -4 10 -10 10 -5 0
-10 -4 -10 -10z" />
    <path d="M1090 970 c0 -5 7 -10 15 -10 8 0 15 5 15 10 0 6 -7 10 -15 10 -8 0
-15 -4 -15 -10z" />
    <path d="M465 958 c-16 -5 -37 -12 -45 -14 l-14 -5 14 -9 15 -10 -12 0 c-6 0
-14 4 -17 9 -10 15 -44 1 -49 -20 l-5 -19 14 0 c8 0 14 7 14 15 0 8 5 15 11
15 l10 0 -7 -11 -7 -12 39 8 c21 4 41 9 44 11 2 3 -1 9 -9 13 l-13 8 24 8 c12
4 28 7 35 6 6 -1 14 3 18 9 l6 10 -18 -1 c-10 0 -31 -5 -48 -11z" />
    <path d="M313 895 c0 -8 6 -15 14 -15 7 0 13 7 13 15 0 8 -6 15 -13 15 -8 0
-14 -7 -14 -15z" />
    <path d="M273 885 c0 -8 6 -15 14 -15 7 0 13 7 13 15 0 8 -6 15 -13 15 -8 0
-14 -7 -14 -15z" />
    <path d="M180 855 l0 -14 15 5 c8 4 15 10 15 15 0 5 -7 9 -15 9 -8 0 -15 -7
-15 -15z" />
    <path d="M123 853 c-18 -7 -16 -23 2 -23 8 0 15 7 15 15 0 8 -1 15 -2 14 -2 0
-9 -3 -15 -6z" />
  </g>
  <g transform="translate(0.000000,220.000000) scale(0.100000,-0.100000)" fill="#e9e0ee" stroke="none">
    <path d="M1035 1250 l-6 -10 15 0 c9 0 16 5 16 10 0 6 -4 10 -9 10 -6 0 -13
-4 -16 -10z" />
    <path d="M1150 1240 c0 -5 7 -10 16 -10 l15 0 -6 10 c-3 6 -10 10 -16 10 -5 0
-9 -4 -9 -10z" />
    <path d="M980 1210 c0 -5 5 -10 10 -10 6 0 10 5 10 10 0 6 -4 10 -10 10 -5 0
-10 -4 -10 -10z" />
    <path d="M1210 1191 c0 -5 5 -13 10 -16 6 -3 10 -2 10 4 0 5 -4 13 -10 16 -5
3 -10 2 -10 -4z" />
    <path d="M950 1154 c-6 -14 -10 -33 -10 -42 l0 -16 9 10 c10 10 23 74 16 74
-3 0 -10 -12 -15 -26z" />
    <path d="M1230 1125 l0 -26 10 6 c6 3 10 12 10 20 0 8 -4 17 -10 20 l-10 6 0
-26z" />
    <path d="M825 1070 l-6 -10 15 0 c9 0 16 5 16 10 0 6 -4 10 -9 10 -6 0 -13 -4
-16 -10z" />
    <path d="M741 1049 c-13 -5 -22 -12 -19 -15 8 -8 58 7 58 17 0 11 -8 11 -39
-2z" />
    <path d="M910 1030 c0 -5 4 -10 9 -10 6 0 13 5 16 10 l6 10 -15 0 c-9 0 -16
-4 -16 -10z" />
    <path d="M870 1020 c0 -5 4 -10 9 -10 6 0 13 5 16 10 l6 10 -15 0 c-9 0 -16
-4 -16 -10z" />
    <path d="M970 1020 c0 -5 5 -10 11 -10 5 0 7 5 4 10 -3 6 -8 10 -11 10 -2 0
-4 -4 -4 -10z" />
    <path d="M820 1008 c0 -4 4 -8 9 -8 6 0 12 4 15 8 3 5 -1 9 -9 9 -8 0 -15 -4
-15 -9z" />
    <path d="M780 998 c0 -4 4 -8 9 -8 6 0 12 4 15 8 3 5 -1 9 -9 9 -8 0 -15 -4
-15 -9z" />
    <path d="M565 990 l-6 -10 15 0 c9 0 16 5 16 10 0 6 -4 10 -9 10 -6 0 -13 -4
-16 -10z" />
    <path d="M740 990 c0 -5 4 -10 9 -10 6 0 13 5 16 10 l6 10 -15 0 c-9 0 -16 -4
-16 -10z" />
    <path d="M1160 990 c-8 -5 -11 -12 -7 -16 4 -4 15 0 24 9 18 18 8 23 -17 7z" />
    <path d="M700 980 c0 -5 4 -10 9 -10 6 0 13 5 16 10 l6 10 -15 0 c-9 0 -16 -4
-16 -10z" />
    <path d="M1015 980 c3 -5 10 -10 16 -10 5 0 9 5 9 10 0 6 -7 10 -16 10 l-15 0
6 -10z" />
    <path d="M481 969 c-13 -5 -22 -12 -19 -15 8 -8 58 7 58 17 0 11 -8 11 -39 -2z" />
    <path d="M660 970 c0 -5 5 -10 10 -10 6 0 10 5 10 10 0 6 -4 10 -10 10 -5 0
-10 -4 -10 -10z" />
    <path d="M590 950 c0 -5 4 -10 9 -10 6 0 13 5 16 10 l6 10 -15 0 c-9 0 -16 -4
-16 -10z" />
    <path d="M550 940 c0 -5 4 -10 9 -10 6 0 13 5 16 10 l6 10 -15 0 c-9 0 -16 -4
-16 -10z" />
    <path d="M510 930 c0 -5 4 -10 9 -10 6 0 13 5 16 10 l6 10 -15 0 c-9 0 -16 -4
-16 -10z" />
    <path d="M470 920 c0 -5 4 -10 9 -10 6 0 13 5 16 10 l6 10 -15 0 c-9 0 -16 -4
-16 -10z" />
    <path d="M305 910 l-6 -10 15 0 c9 0 16 5 16 10 0 6 -4 10 -9 10 -6 0 -13 -4
-16 -10z" />
    <path d="M430 910 c0 -5 4 -10 9 -10 6 0 13 5 16 10 l6 10 -15 0 c-9 0 -16 -4
-16 -10z" />
    <path d="M390 900 c0 -5 4 -10 9 -10 6 0 13 5 16 10 l6 10 -15 0 c-9 0 -16 -4
-16 -10z" />
    <path d="M221 889 c-13 -5 -22 -12 -19 -15 8 -8 58 7 58 17 0 11 -8 11 -39 -2z" />
    <path d="M345 890 c-3 -5 -2 -10 4 -10 5 0 13 5 16 10 3 6 2 10 -4 10 -5 0
-13 -4 -16 -10z" />
    <path d="M300 880 c0 -5 4 -10 9 -10 6 0 13 5 16 10 l6 10 -15 0 c-9 0 -16 -4
-16 -10z" />
    <path d="M50 830 c0 -5 5 -10 10 -10 6 0 10 5 10 10 0 6 -4 10 -10 10 -5 0
-10 -4 -10 -10z" />
  </g>
  <g transform="translate(0.000000,220.000000) scale(0.100000,-0.100000)" fill="#632188" stroke="none">
    <path d="M1038 1253 c-10 -2 -18 -9 -18 -14 l0 -10 23 6 c12 4 26 11 32 16 l9
9 -14 -1 c-8 -1 -23 -3 -32 -6z" />
    <path d="M1090 1251 c0 -5 11 -8 25 -8 14 0 25 3 25 8 0 5 -11 9 -25 9 -14 0
-25 -4 -25 -9z" />
    <path d="M990 1215 l-12 -15 10 0 c12 0 26 19 19 26 -2 2 -10 -2 -17 -11z" />
    <path d="M956 1163 l-7 -18 12 12 c7 7 10 15 7 18 -3 3 -9 -2 -12 -12z" />
    <path d="M1220 1161 c0 -6 5 -13 10 -16 l10 -6 0 15 c0 9 -4 16 -10 16 -5 0
-10 -4 -10 -9z" />
    <path d="M950 1140 c-1 -3 -3 -13 -5 -24 l-4 -19 11 11 c6 6 8 16 5 24 -3 7
-6 11 -7 8z" />
    <path d="M1231 1094 l1 -19 5 13 c3 7 2 16 -1 19 -3 4 -6 -2 -5 -13z" />
    <path d="M835 1070 c-3 -5 1 -10 9 -10 8 0 18 5 21 10 3 6 -1 10 -9 10 -8 0
-18 -4 -21 -10z" />
    <path d="M1191 1018 l-34 -40 19 10 c27 14 57 49 53 61 -2 5 -19 -8 -38 -31z" />
    <path d="M985 1010 c3 -5 8 -10 11 -10 2 0 4 5 4 10 0 6 -5 10 -11 10 -5 0 -7
-4 -4 -10z" />
    <path d="M568 993 c-10 -2 -18 -9 -18 -14 l0 -10 23 6 c12 4 26 11 32 16 l9 9
-14 -1 c-8 -1 -23 -3 -32 -6z" />
    <path d="M625 968 c-16 -5 -36 -12 -44 -14 -8 -2 -12 -7 -9 -10 8 -8 98 17 98
27 0 11 -6 10 -45 -3z" />
    <path d="M1060 970 c0 -5 7 -10 16 -10 l15 0 -6 10 c-3 6 -10 10 -16 10 -5 0
-9 -4 -9 -10z" />
    <path d="M1105 970 l-6 -10 15 0 c9 0 16 5 16 10 0 6 -4 10 -9 10 -6 0 -13 -4
-16 -10z" />
    <path d="M445 950 l-6 -10 15 0 c9 0 16 5 16 10 0 6 -4 10 -9 10 -6 0 -13 -4
-16 -10z" />
    <path d="M320 911 c0 -17 18 -21 24 -6 l5 15 -14 0 c-8 0 -15 -4 -15 -9z" />
    <path d="M81 840 c-14 -3 -27 -12 -29 -19 l-5 -14 29 7 c33 9 37 12 33 24 -2
4 -15 6 -28 2z" />
  </g>
  <g transform="translate(0.000000,220.000000) scale(0.100000,-0.100000)" fill="#b596c7" stroke="none">
    <path d="M1020 1240 c0 -5 7 -7 15 -4 8 4 15 8 15 10 0 2 -7 4 -15 4 -8 0 -15
-4 -15 -10z" />
    <path d="M1172 1228 c2 -6 15 -18 29 -27 l24 -15 -24 27 c-26 29 -35 34 -29
15z" />
    <path d="M970 1195 l-12 -15 10 0 c5 0 12 7 16 15 3 8 4 15 2 15 -2 0 -9 -7
-16 -15z" />
    <path d="M788 1063 c-10 -2 -18 -9 -18 -14 l0 -10 23 6 c12 4 26 11 32 16 l9
9 -14 -1 c-8 -1 -23 -3 -32 -6z" />
    <path d="M1216 1045 c-3 -8 -1 -15 4 -15 6 0 10 7 10 15 0 8 -2 15 -4 15 -2 0
-6 -7 -10 -15z" />
    <path d="M985 1010 c16 -16 30 -28 32 -26 5 5 -45 56 -54 56 -4 0 6 -13 22
-30z" />
    <path d="M680 1020 c0 -5 4 -10 9 -10 6 0 13 5 16 10 l6 10 -15 0 c-9 0 -16
-4 -16 -10z" />
    <path d="M1180 999 c0 -5 5 -7 10 -4 6 3 10 8 10 11 0 2 -4 4 -10 4 -5 0 -10
-5 -10 -11z" />
    <path d="M528 983 c-10 -2 -18 -9 -18 -14 l0 -10 23 6 c12 4 26 11 32 16 l9 9
-14 -1 c-8 -1 -23 -3 -32 -6z" />
    <path d="M1077 968 l-12 -8 38 0 c20 0 37 4 37 9 0 10 -46 9 -63 -1z" />
    <path d="M620 960 l-15 -10 18 0 c9 0 17 5 17 10 0 12 -1 12 -20 0z" />
    <path d="M425 940 c4 -6 11 -8 16 -5 14 9 11 15 -7 15 l-15 0 6 -10z" />
    <path d="M535 940 l-6 -10 15 0 c9 0 16 5 16 10 0 6 -4 10 -9 10 -6 0 -13 -4
-16 -10z" />
    <path d="M495 930 l-6 -10 15 0 c9 0 16 5 16 10 0 6 -4 10 -9 10 -6 0 -13 -4
-16 -10z" />
    <path d="M410 910 l-15 -10 18 0 c9 0 17 5 17 10 0 12 -1 12 -20 0z" />
    <path d="M283 890 c1 -11 7 -20 14 -20 6 0 11 9 10 20 -1 11 -7 20 -14 20 -6
0 -11 -9 -10 -20z" />
    <path d="M365 900 l-6 -10 16 0 16 0 -6 10 c-3 6 -8 10 -10 10 -2 0 -7 -4 -10
-10z" />
    <path d="M325 890 l-6 -10 16 0 16 0 -6 10 c-3 6 -8 10 -10 10 -2 0 -7 -4 -10
-10z" />
    <path d="M240 870 c0 -5 7 -10 15 -10 8 0 15 5 15 10 0 6 -7 10 -15 10 -8 0
-15 -4 -15 -10z" />
    <path d="M160 860 c0 -5 7 -10 15 -10 8 0 15 5 15 10 0 6 -7 10 -15 10 -8 0
-15 -4 -15 -10z" />
    <path d="M200 860 c0 -5 7 -10 15 -10 8 0 15 5 15 10 0 6 -7 10 -15 10 -8 0
-15 -4 -15 -10z" />
    <path d="M125 840 l-6 -10 15 0 c9 0 16 5 16 10 0 6 -4 10 -9 10 -6 0 -13 -4
-16 -10z" />
  </g>
  <g transform="translate(0.000000,220.000000) scale(0.100000,-0.100000)" fill="#570c7f" stroke="none">
    <path d="M1085 1250 c4 -6 11 -8 16 -5 14 9 11 15 -7 15 l-15 0 6 -10z" />
    <path d="M1155 1230 c3 -5 10 -10 16 -10 5 0 9 5 9 10 0 6 -7 10 -16 10 l-15
0 6 -10z" />
    <path d="M875 1080 c-3 -5 -2 -10 4 -10 5 0 13 5 16 10 3 6 2 10 -4 10 -5 0
-13 -4 -16 -10z" />
    <path d="M668 1022 c-10 -2 -18 -8 -18 -13 l0 -10 23 6 c45 14 41 27 -5 17z" />
    <path d="M845 1020 l-6 -10 16 0 16 0 -6 10 c-3 6 -8 10 -10 10 -2 0 -7 -4
-10 -10z" />
    <path d="M805 1010 l-6 -10 15 0 c9 0 16 5 16 10 0 6 -4 10 -9 10 -6 0 -13 -4
-16 -10z" />
    <path d="M610 1000 l-15 -10 17 0 c9 0 20 5 23 10 8 13 -5 13 -25 0z" />
    <path d="M758 1003 c-28 -7 -21 -21 7 -15 14 2 25 8 25 13 0 9 -4 10 -32 2z" />
    <path d="M700 980 c0 -5 7 -7 15 -4 8 4 15 8 15 10 0 2 -7 4 -15 4 -8 0 -15
-4 -15 -10z" />
    <path d="M1030 980 c0 -5 7 -10 16 -10 l15 0 -6 10 c-3 6 -10 10 -16 10 -5 0
-9 -4 -9 -10z" />
    <path d="M446 953 c-3 -4 -16 -8 -28 -10 -26 -4 -34 -10 -25 -19 4 -4 13 -1
22 6 8 7 15 9 15 5 0 -4 6 -2 13 4 8 6 16 8 19 5 3 -3 9 -1 13 5 l6 11 -14 0
c-7 0 -17 -3 -21 -7z" />
    <path d="M363 912 c0 -10 7 -19 14 -19 l13 0 -10 12 c-5 7 -7 15 -3 18 3 4 1
7 -5 7 -6 0 -10 -8 -9 -18z" />
    <path d="M326 899 l7 -12 -27 7 -28 7 7 -10 6 -11 -31 6 -30 7 6 -16 6 -16 19
5 c10 2 29 7 42 10 12 3 28 6 34 6 l13 1 -11 14 c-14 16 -23 17 -13 2z" />
    <path d="M192 869 c2 -6 8 -10 13 -10 5 0 11 4 13 10 2 6 -4 11 -13 11 -9 0
-15 -5 -13 -11z" />
    <path d="M156 863 c-11 -11 -6 -23 9 -23 8 0 15 4 15 9 0 13 -16 22 -24 14z" />
  </g>
  <g transform="translate(0.000000,220.000000) scale(0.100000,-0.100000)" fill="#dbcce4" stroke="none">
    <path d="M1015 1240 c-3 -5 -1 -10 4 -10 6 0 11 5 11 10 0 6 -2 10 -4 10 -3 0
-8 -4 -11 -10z" />
    <path d="M944 1128 l-7 -11 11 7 c12 7 16 16 8 16 -3 0 -8 -5 -12 -12z" />
    <path d="M1230 1124 l0 -15 10 6 c6 4 8 11 5 16 -9 14 -15 11 -15 -7z" />
    <path d="M795 1060 l-6 -10 16 0 16 0 -6 10 c-3 6 -8 10 -10 10 -2 0 -7 -4
-10 -10z" />
    <path d="M705 1030 c-3 -5 -2 -10 4 -10 5 0 13 5 16 10 3 6 2 10 -4 10 -5 0
-13 -4 -16 -10z" />
    <path d="M905 1030 c-3 -5 -2 -10 4 -10 5 0 13 5 16 10 3 6 2 10 -4 10 -5 0
-13 -4 -16 -10z" />
    <path d="M1210 1029 c0 -5 5 -7 10 -4 6 3 10 8 10 11 0 2 -4 4 -10 4 -5 0 -10
-5 -10 -11z" />
    <path d="M674 1018 l-7 -11 11 7 c12 7 16 16 8 16 -3 0 -8 -5 -12 -12z" />
    <path d="M865 1020 c-3 -5 -2 -10 4 -10 5 0 13 5 16 10 3 6 2 10 -4 10 -5 0
-13 -4 -16 -10z" />
    <path d="M535 980 l-6 -10 16 0 16 0 -6 10 c-3 6 -8 10 -10 10 -2 0 -7 -4 -10
-10z" />
    <path d="M1050 970 c0 -5 7 -10 16 -10 l15 0 -6 10 c-3 6 -10 10 -16 10 -5 0
-9 -4 -9 -10z" />
    <path d="M463 960 c-13 -5 -23 -11 -23 -13 0 -8 50 5 56 14 6 11 -4 11 -33 -1z" />
    <path d="M414 938 l-7 -11 11 7 c12 7 16 16 8 16 -3 0 -8 -5 -12 -12z" />
    <path d="M420 910 c0 -5 4 -10 9 -10 6 0 13 5 16 10 l6 10 -15 0 c-9 0 -16 -4
-16 -10z" />
    <path d="M245 894 c-22 -8 -47 -17 -55 -21 -8 -3 -17 -7 -20 -8 -50 -20 -70
-31 -70 -37 0 -11 18 -10 25 2 4 6 11 8 16 5 5 -4 12 1 15 10 l7 17 9 -14 8
-13 11 18 11 18 14 -12 14 -11 0 16 c0 19 11 21 27 5 l11 -11 7 13 8 12 -11
-7 c-7 -4 -12 -5 -12 -1 0 3 10 9 22 14 39 14 4 19 -37 5z" />
    <path d="M385 900 c-3 -5 -2 -10 4 -10 5 0 13 5 16 10 3 6 2 10 -4 10 -5 0
-13 -4 -16 -10z" />
    <path d="M304 878 l-7 -11 11 7 c12 7 16 16 8 16 -3 0 -8 -5 -12 -12z" />
    <path d="M65 820 c-3 -5 -2 -10 4 -10 5 0 13 5 16 10 3 6 2 10 -4 10 -5 0 -13
-4 -16 -10z" />
  </g>
  <g transform="translate(0.000000,220.000000) scale(0.100000,-0.100000)" fill="#6a278d" stroke="none">
    <path d="M1045 1250 c-3 -5 -2 -10 4 -10 5 0 13 5 16 10 3 6 2 10 -4 10 -5 0
-13 -4 -16 -10z" />
    <path d="M1165 1226 c17 -13 32 -22 34 -20 5 5 -42 43 -54 44 -5 0 4 -11 20
-24z" />
    <path d="M1230 1110 c0 -7 3 -10 7 -7 3 4 3 10 0 14 -4 3 -7 0 -7 -7z" />
    <path d="M805 1061 c-11 -5 -23 -7 -27 -4 -5 2 -8 -1 -8 -7 l0 -11 23 6 c12 4
26 11 32 16 11 11 7 10 -20 0z" />
    <path d="M950 1040 c0 -5 7 -10 16 -10 l15 0 -6 10 c-3 6 -10 10 -16 10 -5 0
-9 -4 -9 -10z" />
    <path d="M710 1030 l-15 -10 12 0 c6 0 15 5 18 10 8 12 4 12 -15 0z" />
    <path d="M865 1020 l-6 -10 15 6 c18 7 21 14 7 14 -6 0 -13 -4 -16 -10z" />
    <path d="M545 981 c-11 -5 -23 -7 -27 -4 -5 2 -8 -1 -8 -7 l0 -11 23 6 c12 4
26 11 32 16 11 11 7 10 -20 0z" />
    <path d="M723 983 c4 -3 10 -3 14 0 3 4 0 7 -7 7 -7 0 -10 -3 -7 -7z" />
    <path d="M1133 980 c-13 -5 -23 -11 -23 -14 0 -8 43 3 54 14 l10 10 -9 -1 c-6
0 -20 -4 -32 -9z" />
    <path d="M1050 972 c0 -5 7 -9 15 -9 8 0 12 4 9 9 -3 4 -9 8 -15 8 -5 0 -9 -4
-9 -8z" />
    <path d="M630 959 c0 -5 5 -7 10 -4 6 3 10 8 10 11 0 2 -4 4 -10 4 -5 0 -10
-5 -10 -11z" />
    <path d="M536 941 c-4 -5 1 -8 9 -7 21 3 31 16 12 16 -9 0 -18 -4 -21 -9z" />
    <path d="M496 932 c-3 -5 1 -9 9 -9 8 0 15 4 15 9 0 4 -4 8 -9 8 -6 0 -12 -4
-15 -8z" />
    <path d="M455 920 l-6 -10 15 0 c9 0 16 5 16 10 0 6 -4 10 -9 10 -6 0 -13 -4
-16 -10z" />
    <path d="M290 905 c-41 -15 -49 -30 -18 -32 l23 -2 -14 8 -14 9 32 7 c17 3 33
11 36 16 7 11 0 10 -45 -6z" />
    <path d="M420 909 c0 -5 5 -7 10 -4 6 3 10 8 10 11 0 2 -4 4 -10 4 -5 0 -10
-5 -10 -11z" />
    <path d="M193 873 c-17 -6 -17 -20 0 -20 8 0 14 6 14 14 0 7 -1 13 -1 12 -1 0
-7 -3 -13 -6z" />
    <path d="M100 835 l0 -14 15 5 c8 4 12 10 9 15 -8 14 -24 10 -24 -6z" />
  </g>
  <g transform="translate(0.000000,220.000000) scale(0.100000,-0.100000)" fill="#7e459d" stroke="none">
    <path d="M1044 1248 l-7 -11 11 7 c12 7 16 16 8 16 -3 0 -8 -5 -12 -12z" />
    <path d="M1165 1230 c3 -5 8 -10 11 -10 2 0 4 5 4 10 0 6 -5 10 -11 10 -5 0
-7 -4 -4 -10z" />
    <path d="M1215 1185 c4 -11 11 -33 15 -50 l8 -30 1 30 c0 17 -7 39 -16 50
l-16 20 8 -20z" />
    <path d="M960 1179 c0 -5 5 -7 10 -4 6 3 10 8 10 11 0 2 -4 4 -10 4 -5 0 -10
-5 -10 -11z" />
    <path d="M950 1140 c0 -7 3 -10 7 -7 3 4 3 10 0 14 -4 3 -7 0 -7 -7z" />
    <path d="M765 1050 c-3 -5 -1 -10 4 -10 6 0 11 5 11 10 0 6 -2 10 -4 10 -3 0
-8 -4 -11 -10z" />
    <path d="M963 1033 c4 -3 10 -3 14 0 3 4 0 7 -7 7 -7 0 -10 -3 -7 -7z" />
    <path d="M803 1003 c4 -3 10 -3 14 0 3 4 0 7 -7 7 -7 0 -10 -3 -7 -7z" />
    <path d="M1010 990 c0 -5 5 -10 11 -10 5 0 7 5 4 10 -3 6 -8 10 -11 10 -2 0
-4 -4 -4 -10z" />
    <path d="M490 964 l-25 -15 25 7 c28 7 35 12 29 18 -2 2 -15 -2 -29 -10z" />
    <path d="M533 973 c4 -3 10 -3 14 0 3 4 0 7 -7 7 -7 0 -10 -3 -7 -7z" />
    <path d="M635 960 l-6 -10 15 6 c18 7 21 14 7 14 -6 0 -13 -4 -16 -10z" />
    <path d="M510 930 c0 -5 7 -7 15 -4 8 4 15 8 15 10 0 2 -7 4 -15 4 -8 0 -15
-4 -15 -10z" />
    <path d="M465 920 c-3 -5 -2 -10 4 -10 5 0 13 5 16 10 3 6 2 10 -4 10 -5 0
-13 -4 -16 -10z" />
    <path d="M333 913 c4 -3 10 -3 14 0 3 4 0 7 -7 7 -7 0 -10 -3 -7 -7z" />
    <path d="M425 910 l-6 -10 15 6 c18 7 21 14 7 14 -6 0 -13 -4 -16 -10z" />
    <path d="M385 900 l-6 -10 15 6 c18 7 21 14 7 14 -6 0 -13 -4 -16 -10z" />
    <path d="M238 889 c-14 -6 -29 -16 -32 -24 l-5 -14 15 6 c7 3 14 10 14 15 0 6
7 8 15 4 8 -3 15 -1 15 4 0 5 8 11 18 13 l17 5 -15 0 c-8 0 -27 -4 -42 -9z" />
    <path d="M70 830 c0 -5 7 -10 16 -10 l15 0 -6 10 c-3 6 -10 10 -16 10 -5 0 -9
-4 -9 -10z" />
  </g>
  <g transform="translate(0.000000,220.000000) scale(0.100000,-0.100000)" fill="#743794" stroke="none">
    <path d="M1125 1250 c3 -5 11 -10 16 -10 6 0 7 5 4 10 -3 6 -11 10 -16 10 -6
0 -7 -4 -4 -10z" />
    <path d="M930 1100 l-15 -10 12 0 c6 0 15 5 18 10 8 12 4 12 -15 0z" />
    <path d="M830 1070 l-15 -10 12 0 c6 0 15 5 18 10 8 12 4 12 -15 0z" />
    <path d="M1224 1058 l-7 -11 11 7 c12 7 16 16 8 16 -3 0 -8 -5 -12 -12z" />
    <path d="M793 1053 c4 -3 10 -3 14 0 3 4 0 7 -7 7 -7 0 -10 -3 -7 -7z" />
    <path d="M735 1040 c-3 -5 -2 -10 4 -10 5 0 13 5 16 10 3 6 2 10 -4 10 -5 0
-13 -4 -16 -10z" />
    <path d="M945 1040 l-6 -10 16 0 16 0 -6 10 c-3 6 -8 10 -10 10 -2 0 -7 -4
-10 -10z" />
    <path d="M905 1030 l-6 -10 15 6 c18 7 21 14 7 14 -6 0 -13 -4 -16 -10z" />
    <path d="M663 1013 c4 -3 10 -3 14 0 3 4 0 7 -7 7 -7 0 -10 -3 -7 -7z" />
    <path d="M1183 1003 c4 -3 10 -3 14 0 3 4 0 7 -7 7 -7 0 -10 -3 -7 -7z" />
    <path d="M570 990 l-15 -10 12 0 c6 0 15 5 18 10 8 12 4 12 -15 0z" />
    <path d="M763 993 c4 -3 10 -3 14 0 3 4 0 7 -7 7 -7 0 -10 -3 -7 -7z" />
    <path d="M1034 975 c11 -8 22 -12 25 -9 6 6 -19 24 -34 24 -5 -1 -1 -7 9 -15z" />
    <path d="M1130 969 c0 -5 5 -7 10 -4 6 3 10 8 10 11 0 2 -4 4 -10 4 -5 0 -10
-5 -10 -11z" />
    <path d="M595 950 l-6 -10 15 6 c18 7 21 14 7 14 -6 0 -13 -4 -16 -10z" />
    <path d="M555 940 l-6 -10 15 6 c18 7 21 14 7 14 -6 0 -13 -4 -16 -10z" />
    <path d="M403 933 c4 -3 10 -3 14 0 3 4 0 7 -7 7 -7 0 -10 -3 -7 -7z" />
    <path d="M510 930 c0 -7 3 -10 7 -7 3 4 3 10 0 14 -4 3 -7 0 -7 -7z" />
    <path d="M310 910 l-15 -10 12 0 c6 0 15 5 18 10 8 12 4 12 -15 0z" />
    <path d="M345 890 l-6 -10 15 6 c18 7 21 14 7 14 -6 0 -13 -4 -16 -10z" />
    <path d="M313 883 c4 -3 10 -3 14 0 3 4 0 7 -7 7 -7 0 -10 -3 -7 -7z" />
    <path d="M140 849 c0 -5 9 -9 20 -9 11 0 20 4 20 8 0 4 -9 8 -20 9 -11 1 -20
-2 -20 -8z" />
    <path d="M63 825 c0 -8 4 -12 9 -9 4 3 8 9 8 15 0 5 -4 9 -8 9 -5 0 -9 -7 -9
-15z" />
  </g>
  <g transform="translate(0.000000,220.000000) scale(0.100000,-0.100000)" fill="#c1a7d0" stroke="none">
    <path d="M1053 1253 c4 -3 10 -3 14 0 3 4 0 7 -7 7 -7 0 -10 -3 -7 -7z" />
    <path d="M1140 1246 c0 -2 7 -7 16 -10 l15 -6 -6 10 c-6 10 -25 14 -25 6z" />
    <path d="M875 1080 l-6 -10 15 6 c18 7 21 14 7 14 -6 0 -13 -4 -16 -10z" />
    <path d="M730 1040 c-18 -12 -2 -12 25 0 l20 9 -15 0 c-8 0 -22 -4 -30 -9z" />
    <path d="M938 1033 c7 -3 16 -2 19 1 4 3 -2 6 -13 5 l-19 -1 13 -5z" />
    <path d="M1201 1017 l-13 -22 18 17 c10 10 16 20 13 22 -3 3 -11 -5 -18 -17z" />
    <path d="M893 1023 c4 -3 10 -3 14 0 3 4 0 7 -7 7 -7 0 -10 -3 -7 -7z" />
    <path d="M623 1003 c4 -3 10 -3 14 0 3 4 0 7 -7 7 -7 0 -10 -3 -7 -7z" />
    <path d="M583 993 c4 -3 10 -3 14 0 3 4 0 7 -7 7 -7 0 -10 -3 -7 -7z" />
    <path d="M1150 980 l-15 -10 12 0 c6 0 15 5 18 10 8 12 4 12 -15 0z" />
    <path d="M493 963 c4 -3 10 -3 14 0 3 4 0 7 -7 7 -7 0 -10 -3 -7 -7z" />
    <path d="M463 953 c4 -3 10 -3 14 0 3 4 0 7 -7 7 -7 0 -10 -3 -7 -7z" />
    <path d="M363 923 c4 -3 10 -3 14 0 3 4 0 7 -7 7 -7 0 -10 -3 -7 -7z" />
    <path d="M458 913 c7 -3 16 -2 19 1 4 3 -2 6 -13 5 l-19 -1 13 -5z" />
    <path d="M263 893 c4 -3 10 -3 14 0 3 4 0 7 -7 7 -7 0 -10 -3 -7 -7z" />
    <path d="M233 883 c4 -3 10 -3 14 0 3 4 0 7 -7 7 -7 0 -10 -3 -7 -7z" />
    <path d="M205 870 c3 -5 8 -10 11 -10 2 0 4 5 4 10 0 6 -5 10 -11 10 -5 0 -7
-4 -4 -10z" />
    <path d="M96 835 c-3 -8 -1 -15 3 -15 5 0 11 7 15 15 3 8 1 15 -3 15 -5 0 -11
-7 -15 -15z" />
    <path d="M55 830 l-6 -10 15 6 c18 7 21 14 7 14 -6 0 -13 -4 -16 -10z" />
  </g>
  <g transform="translate(0.000000,220.000000) scale(0.100000,-0.100000)" fill="#996db2" stroke="none">
    <path d="M1068 1253 c7 -3 16 -2 19 1 4 3 -2 6 -13 5 l-19 -1 13 -5z" />
    <path d="M1135 1250 c3 -5 8 -10 11 -10 3 0 2 5 -1 10 -3 6 -8 10 -11 10 -3 0
-2 -4 1 -10z" />
    <path d="M994 1218 l-19 -23 23 19 c21 18 27 26 19 26 -2 0 -12 -10 -23 -22z" />
    <path d="M764 1048 l-7 -11 11 7 c12 7 16 16 8 16 -3 0 -8 -5 -12 -12z" />
    <path d="M734 1038 l-7 -11 11 7 c7 4 12 9 12 12 0 8 -9 4 -16 -8z" />
    <path d="M695 980 c-3 -5 -1 -10 4 -10 6 0 11 5 11 10 0 6 -2 10 -4 10 -3 0
-8 -4 -11 -10z" />
    <path d="M655 970 c-3 -5 -1 -10 4 -10 6 0 11 5 11 10 0 6 -2 10 -4 10 -3 0
-8 -4 -11 -10z" />
    <path d="M245 880 c3 -5 8 -10 11 -10 3 0 2 5 -1 10 -3 6 -8 10 -11 10 -3 0
-2 -4 1 -10z" />
    <path d="M210 870 c0 -5 5 -10 11 -10 5 0 7 5 4 10 -3 6 -8 10 -11 10 -2 0 -4
-4 -4 -10z" />
    <path d="M94 828 l-7 -11 11 7 c7 4 12 9 12 12 0 8 -9 4 -16 -8z" />
    <path d="M50 820 c0 -5 5 -10 11 -10 5 0 7 5 4 10 -3 6 -8 10 -11 10 -2 0 -4
-4 -4 -10z" />
  </g>
  <g transform="translate(0.000000,220.000000) scale(0.100000,-0.100000)" fill="#aa86be" stroke="none">
    <path d="M1093 1253 c9 -2 23 -2 30 0 6 3 -1 5 -18 5 l-30 0 18 -5z" />
    <path d="M960 1180 c0 -7 3 -10 7 -7 3 4 3 10 0 14 -4 3 -7 0 -7 -7z" />
    <path d="M1226 1167 c3 -10 9 -15 12 -12 3 3 0 11 -7 18 l-12 12 7 -18z" />
    <path d="M950 1150 c0 -7 3 -10 7 -7 3 4 3 10 0 14 -4 3 -7 0 -7 -7z" />
    <path d="M923 1033 c4 -3 10 -3 14 0 3 4 0 7 -7 7 -7 0 -10 -3 -7 -7z" />
    <path d="M883 1023 c4 -3 10 -3 14 0 3 4 0 7 -7 7 -7 0 -10 -3 -7 -7z" />
    <path d="M848 1013 c7 -3 16 -2 19 1 4 3 -2 6 -13 5 l-19 -1 13 -5z" />
    <path d="M813 1003 c4 -3 10 -3 14 0 3 4 0 7 -7 7 -7 0 -10 -3 -7 -7z" />
    <path d="M773 993 c4 -3 10 -3 14 0 3 4 0 7 -7 7 -7 0 -10 -3 -7 -7z" />
    <path d="M578 943 c7 -3 16 -2 19 1 4 3 -2 6 -13 5 l-19 -1 13 -5z" />
    <path d="M390 929 c0 -5 5 -7 10 -4 6 3 10 8 10 11 0 2 -4 4 -10 4 -5 0 -10
-5 -10 -11z" />
    <path d="M443 913 c4 -3 10 -3 14 0 3 4 0 7 -7 7 -7 0 -10 -3 -7 -7z" />
    <path d="M170 849 c0 -5 5 -7 10 -4 6 3 10 8 10 11 0 2 -4 4 -10 4 -5 0 -10
-5 -10 -11z" />
    <path d="M53 813 c4 -3 10 -3 14 0 3 4 0 7 -7 7 -7 0 -10 -3 -7 -7z" />
  </g>
  <g transform="translate(0.000000,220.000000) scale(0.100000,-0.100000)" fill="#d3c0dd" stroke="none">
    <path d="M1123 1253 c4 -3 10 -3 14 0 3 4 0 7 -7 7 -7 0 -10 -3 -7 -7z" />
    <path d="M1013 1233 c4 -3 10 -3 14 0 3 4 0 7 -7 7 -7 0 -10 -3 -7 -7z" />
    <path d="M910 1089 c0 -5 5 -7 10 -4 6 3 10 8 10 11 0 2 -4 4 -10 4 -5 0 -10
-5 -10 -11z" />
    <path d="M953 1033 c4 -3 10 -3 14 0 3 4 0 7 -7 7 -7 0 -10 -3 -7 -7z" />
    <path d="M653 1013 c4 -3 10 -3 14 0 3 4 0 7 -7 7 -7 0 -10 -3 -7 -7z" />
    <path d="M1013 983 c4 -3 10 -3 14 0 3 4 0 7 -7 7 -7 0 -10 -3 -7 -7z" />
    <path d="M504 968 l-7 -11 11 7 c12 7 16 16 8 16 -3 0 -8 -5 -12 -12z" />
    <path d="M660 969 c0 -5 5 -7 10 -4 6 3 10 8 10 11 0 2 -4 4 -10 4 -5 0 -10
-5 -10 -11z" />
    <path d="M1045 970 c3 -5 8 -10 11 -10 3 0 2 5 -1 10 -3 6 -8 10 -11 10 -3 0
-2 -4 1 -10z" />
    <path d="M1134 968 l-7 -11 11 7 c7 4 12 9 12 12 0 8 -9 4 -16 -8z" />
    <path d="M390 930 c0 -7 3 -10 7 -7 3 4 3 10 0 14 -4 3 -7 0 -7 -7z" />
    <path d="M474 918 l-7 -11 11 7 c12 7 16 16 8 16 -3 0 -8 -5 -12 -12z" />
    <path d="M130 850 c0 -5 5 -10 10 -10 6 0 10 5 10 10 0 6 -4 10 -10 10 -5 0
-10 -4 -10 -10z" />
  </g>
  <g transform="translate(0.000000,220.000000) scale(0.100000,-0.100000)" fill="#8a56a6" stroke="none">
    <path d="M858 1073 c7 -3 16 -2 19 1 4 3 -2 6 -13 5 l-19 -1 13 -5z" />
    <path d="M593 993 c4 -3 10 -3 14 0 3 4 0 7 -7 7 -7 0 -10 -3 -7 -7z" />
    <path d="M483 923 c4 -3 10 -3 14 0 3 4 0 7 -7 7 -7 0 -10 -3 -7 -7z" />
    <path d="M244 868 l-7 -11 11 7 c12 7 16 16 8 16 -3 0 -8 -5 -12 -12z" />
    <path d="M175 860 c-3 -5 -1 -10 4 -10 6 0 11 5 11 10 0 6 -2 10 -4 10 -3 0
-8 -4 -11 -10z" />
    <path d="M105 839 c-3 -4 2 -6 10 -5 21 3 28 13 10 13 -9 0 -18 -4 -20 -8z" />
  </g>
  <g transform="translate(0.000000,220.000000) scale(0.100000,-0.100000)" fill="#cbb6d7" stroke="none">
    <path d="M1163 1233 c4 -3 10 -3 14 0 3 4 0 7 -7 7 -7 0 -10 -3 -7 -7z" />
    <path d="M843 1073 c4 -3 10 -3 14 0 3 4 0 7 -7 7 -7 0 -10 -3 -7 -7z" />
    <path d="M1230 1070 c0 -7 3 -10 7 -7 3 4 3 10 0 14 -4 3 -7 0 -7 -7z" />
    <path d="M735 990 c-3 -5 -1 -10 4 -10 6 0 11 5 11 10 0 6 -2 10 -4 10 -3 0
-8 -4 -11 -10z" />
    <path d="M700 980 c0 -7 3 -10 7 -7 3 4 3 10 0 14 -4 3 -7 0 -7 -7z" />
    <path d="M1027 979 c7 -7 15 -10 18 -7 3 3 -2 9 -12 12 l-18 7 12 -12z" />
    <path d="M323 913 c4 -3 10 -3 14 0 3 4 0 7 -7 7 -7 0 -10 -3 -7 -7z" />
  </g>
  <g transform="translate(0.000000,220.000000) scale(0.100000,-0.100000)" fill="#51047c" stroke="none">
    <path d="M914 1088 l-7 -11 11 7 c7 4 12 9 12 12 0 8 -9 4 -16 -8z" />
    <path d="M734 988 l-7 -11 11 7 c7 4 12 9 12 12 0 8 -9 4 -16 -8z" />
    <path d="M663 973 c4 -3 10 -3 14 0 3 4 0 7 -7 7 -7 0 -10 -3 -7 -7z" />
    <path d="M213 863 c4 -3 10 -3 14 0 3 4 0 7 -7 7 -7 0 -10 -3 -7 -7z" />
    <path d="M135 850 l-6 -10 16 0 16 0 -6 10 c-3 6 -8 10 -10 10 -2 0 -7 -4 -10
-10z" />
    <path d="M173 853 c4 -3 10 -3 14 0 3 4 0 7 -7 7 -7 0 -10 -3 -7 -7z" />
  </g>
  <g transform="translate(0.000000,220.000000) scale(0.100000,-0.100000)" fill="#a37bb9" stroke="none">
    <path d="M1230 1080 c0 -7 3 -10 7 -7 3 4 3 10 0 14 -4 3 -7 0 -7 -7z" />
  </g>
  <g transform="translate(0.000000,220.000000) scale(0.100000,-0.100000)" fill="#9264ab" stroke="none" />
</svg>