<?xml version="1.0" encoding="utf-8"?>
<svg version="1.1" xmlns:xlink="http://www.w3.org/1999/xlink" width="24px" height="19px" xmlns="http://www.w3.org/2000/svg">
  <g transform="matrix(1 0 0 1 -35 -11 )">
    <path d="M 20.550185873605948 10.855027279812937  C 20.56009913258984 10.874772668225512  20.565055762081784 10.904390750844374  20.565055762081784 10.943881527669525  L 20.565055762081784 18.052221356196416  C 20.565055762081784 18.308911405559883  20.470879801734824 18.53104702520135  20.28252788104089 18.71862821512081  C 20.094175960346966 18.906209405040272  19.87112763320942 19  19.613382899628252 19  L 13.903345724907062 19  L 13.903345724907062 13.31332813717849  L 10.096654275092936 13.31332813717849  L 10.096654275092936 19  L 4.386617100371748 19  C 4.128872366790583 19  3.9058240396530364 18.906209405040272  3.7174721189591073 18.71862821512081  C 3.52912019826518 18.53104702520135  3.4349442379182156 18.308911405559883  3.4349442379182156 18.052221356196416  L 3.4349442379182156 10.943881527669525  C 3.4349442379182156 10.934008833463237  3.437422552664189 10.919199792153806  3.4423791821561336 10.899454403741231  C 3.4473358116480797 10.879709015328658  3.4498141263940525 10.864899974019226  3.4498141263940525 10.855027279812937  L 12 3.835541699142634  L 20.550185873605948 10.855027279812937  Z M 23.985130111524164 9.574045206547156  C 23.995043370508057 9.707326578332033  23.96034696406444 9.82333073525591  23.881040892193308 9.922057677318785  L 22.95910780669145 11.017926734216681  C 22.879801734820326 11.106780982073268  22.775712515489467 11.161080800207847  22.646840148698885 11.180826188620422  L 22.602230483271374 11.180826188620422  C 22.473358116480796 11.180826188620422  22.36926889714994 11.146271758898415  22.28996282527881 11.077162899454402  L 12 2.532346063912705  L 1.7100371747211895 11.077162899454402  C 1.5910780669144982 11.1561444531047  1.4721189591078068 11.190698882826707  1.3531598513011152 11.180826188620422  C 1.224287484510533 11.161080800207847  1.120198265179678 11.106780982073268  1.0408921933085502 11.017926734216681  L 0.11895910780669144 9.922057677318785  C 0.03965303593556384 9.82333073525591  0.004956629491945513 9.707326578332033  0.01486988847583643 9.574045206547156  C 0.024783147459727456 9.440763834762276  0.07930607187112768 9.334632372044686  0.17843866171003717 9.255650818394388  L 10.869888475836431 0.3850350740452071  C 11.187112763320943 0.1283450246817336  11.563816604708798 0  12 0  C 12.436183395291204 0  12.81288723667906 0.1283450246817336  13.130111524163569 0.3850350740452071  L 16.75836431226766 3.406079501169134  L 16.75836431226766 0.5183164458300848  C 16.75836431226766 0.3800987269420608  16.802973977695167 0.2665627435697576  16.892193308550183 0.17770849571317315  C 16.981412639405203 0.08885424785658658  17.095415117719952 0.04442712392829329  17.234200743494423 0.04442712392829329  L 20.08921933085502 0.04442712392829329  C 20.228004956629494 0.04442712392829329  20.342007434944236 0.08885424785658658  20.431226765799256 0.17770849571317315  C 20.520446096654275 0.2665627435697576  20.565055762081784 0.3800987269420608  20.565055762081784 0.5183164458300848  L 20.565055762081784 6.560405300077942  L 23.82156133828996 9.255650818394388  C 23.920693928128873 9.334632372044686  23.975216852540274 9.440763834762276  23.985130111524164 9.574045206547156  Z " fill-rule="nonzero" fill="#acacac" stroke="none" transform="matrix(1 0 0 1 35 11 )" />
  </g>
</svg>